<?xml version="1.0" standalone="no"?>
<!DOCTYPE svg PUBLIC "-//W3C//DTD SVG 20010904//EN"
 "http://www.w3.org/TR/2001/REC-SVG-20010904/DTD/svg10.dtd">
<svg version="1.0" xmlns="http://www.w3.org/2000/svg"
 width="5000.000000pt" height="5000.000000pt" viewBox="0 0 5000.000000 5000.000000"
 preserveAspectRatio="xMidYMid meet">

<g transform="translate(0.000000,5000.000000) scale(0.100000,-0.100000)"
fill="#000000" stroke="none">
<path d="M22065 41340 c-2283 -2284 -3666 -3659 -3675 -3657 -8 2 -354 196
-769 431 l-754 428 -32 -34 c-27 -27 -309 -323 -1225 -1283 -141 -148 -359
-394 -605 -680 -2028 -2367 -3876 -5216 -5127 -7905 -130 -278 -358 -786 -358
-796 0 -5 -100 -214 -235 -489 -65 -132 -169 -345 -231 -473 l-113 -233 296
-572 c308 -596 331 -637 483 -883 538 -864 1385 -2016 2215 -3011 118 -142
214 -261 213 -264 -2 -4 -1114 -1162 -2473 -2572 -1358 -1411 -2471 -2572
-2473 -2579 -2 -12 78 -200 184 -428 89 -193 402 -813 522 -1036 854 -1580
1916 -3118 3046 -4408 414 -473 1022 -1104 1441 -1496 1647 -1539 3364 -2648
5253 -3395 1305 -515 2711 -843 4097 -955 488 -39 657 -45 1255 -45 428 0 794
8 915 20 22 2 90 6 150 10 107 6 400 30 493 40 26 3 150 17 275 30 365 40 930
124 947 141 8 8 355 715 505 1029 24 50 96 198 160 330 65 132 137 281 160
330 24 50 115 238 204 419 89 181 161 330 161 331 0 1 64 132 141 291 78 159
169 348 204 419 34 72 221 456 415 855 194 399 392 806 440 905 748 1543 828
1705 837 1705 4 0 55 -4 113 -9 58 -6 143 -13 190 -16 47 -3 101 -7 120 -10
19 -2 80 -7 135 -10 55 -3 111 -8 125 -10 14 -2 75 -7 135 -10 61 -4 124 -8
140 -10 17 -2 98 -9 180 -15 154 -11 497 -37 595 -45 30 -2 100 -7 155 -10 55
-4 111 -8 124 -11 13 -2 78 -6 145 -10 l121 -6 95 98 c976 1014 2613 3000
4053 4914 143 190 261 346 262 348 2 3 289 -72 1250 -324 l359 -95 18 23 c93
121 481 693 720 1063 2203 3408 3841 7015 4552 10023 95 401 206 935 206 991
0 29 -195 419 -330 661 -1038 1856 -2654 4056 -4430 6030 -557 619 -947 1029
-1599 1680 -1663 1662 -3293 3061 -5261 4516 -1155 854 -2548 1777 -3813 2528
-172 101 -449 252 -672 366 -209 107 -510 260 -670 342 -159 81 -292 148 -295
148 -3 0 -1652 -1647 -3665 -3660z m3789 -368 c164 -497 271 -1081 306 -1672
12 -206 11 -723 -1 -900 -9 -116 -37 -419 -44 -475 -111 -810 -295 -1486 -602
-2210 -98 -232 -317 -678 -431 -880 -43 -77 -76 -141 -71 -143 22 -9 431 184
664 313 996 551 1841 1288 2428 2117 452 639 727 1243 937 2056 l11 43 187
-128 c329 -223 682 -468 882 -613 837 -604 1488 -1106 2194 -1694 1641 -1364
3187 -2894 4512 -4466 994 -1179 1872 -2383 2566 -3520 123 -202 286 -482 355
-610 20 -36 49 -89 65 -118 l30 -53 -17 -77 c-234 -1067 -672 -2365 -1198
-3547 -244 -548 -560 -1196 -812 -1665 -37 -69 -88 -163 -113 -210 -231 -433
-631 -1118 -964 -1654 -252 -404 -780 -1209 -942 -1433 l-37 -52 -157 55
c-1737 608 -4223 1835 -6927 3419 -143 84 -289 169 -325 190 -115 67 -900 539
-1060 637 -185 113 -540 332 -592 364 l-36 23 70 133 c332 634 669 1383 853
1894 25 71 52 145 59 164 27 70 116 368 151 505 40 156 80 364 90 470 4 39 9
79 11 89 7 38 -265 514 -607 1063 -1133 1820 -2577 3692 -4048 5247 -124 132
-261 276 -303 322 l-78 82 35 45 c149 195 457 648 637 937 241 388 393 660
593 1065 252 510 410 898 575 1409 167 521 300 1201 300 1542 l0 83 -1811
-1829 c-997 -1007 -1813 -1830 -1816 -1830 -2 0 -92 78 -201 173 -108 95 -277
240 -375 322 -97 82 -176 152 -175 156 2 4 122 134 267 289 1427 1525 3232
3293 4730 4635 138 123 156 136 167 121 7 -10 37 -93 68 -184z m-7792 -6445
c1047 -633 2105 -1418 3093 -2297 507 -450 1297 -1222 1737 -1697 951 -1027
1804 -2092 2494 -3114 l155 -229 -317 -473 c-175 -259 -359 -533 -409 -607
-50 -74 -184 -272 -297 -440 -112 -168 -359 -534 -548 -815 -189 -280 -434
-645 -545 -810 -111 -165 -252 -375 -314 -467 -62 -93 -118 -168 -123 -168
-10 0 -136 70 -533 295 -186 106 -1725 975 -1805 1020 -41 23 -149 84 -240
135 -91 51 -246 139 -345 195 -630 355 -747 421 -805 455 -36 20 -227 128
-425 240 -198 111 -441 249 -540 305 -99 56 -342 193 -540 305 -198 111 -389
219 -425 240 -36 20 -191 108 -345 195 -249 140 -373 210 -780 440 -262 149
-1271 718 -1280 723 -21 10 76 -80 660 -614 4048 -3705 6368 -5790 7066 -6350
127 -102 355 -254 381 -254 25 0 791 480 1218 764 541 359 868 602 1192 886
l47 41 198 -142 c1360 -972 3300 -2051 5458 -3036 499 -228 1231 -547 1600
-698 195 -80 181 -70 152 -108 -13 -18 -147 -207 -297 -422 -151 -214 -348
-496 -439 -625 -91 -129 -632 -901 -1204 -1715 -571 -814 -1044 -1485 -1050
-1492 -9 -8 -52 -8 -177 3 -1490 128 -3053 521 -4710 1184 -548 219 -1284 550
-1697 763 l-52 27 43 93 c24 50 240 499 481 997 240 498 454 941 475 985 21
44 82 170 135 280 124 254 921 1906 987 2044 27 56 48 105 46 107 -2 2 -421
-234 -932 -525 l-928 -527 -160 -275 c-297 -507 -540 -923 -608 -1039 -37 -63
-129 -221 -205 -350 -76 -129 -174 -298 -220 -375 -45 -77 -155 -266 -245
-420 -90 -154 -167 -284 -171 -289 -4 -4 -78 33 -166 84 -1948 1137 -3787
2538 -5153 3926 -668 679 -1349 1439 -1978 2207 -89 109 -162 202 -162 207 0
5 6 7 13 5 10 -4 473 -65 1027 -135 85 -11 169 -22 185 -25 17 -2 172 -22 345
-44 173 -23 365 -48 425 -56 61 -8 299 -39 530 -69 231 -30 629 -82 885 -115
256 -34 499 -65 540 -70 41 -6 129 -17 195 -26 401 -53 887 -115 898 -115 11
0 -87 54 -778 430 -273 148 -1778 965 -2675 1453 -223 121 -556 302 -740 402
-184 100 -542 295 -795 432 -566 307 -1717 932 -1805 981 -36 19 -112 61 -170
92 -291 158 -446 242 -452 249 -14 13 395 820 672 1327 1055 1927 2510 3957
4119 5744 293 325 857 920 872 920 4 0 121 -69 261 -153z m-2897 -15381 c1537
-1476 3194 -2795 4849 -3861 76 -50 143 -93 149 -96 5 -4 -111 -189 -264 -420
-151 -227 -423 -638 -605 -912 l-331 -499 -175 213 c-96 118 -532 655 -970
1194 -498 613 -832 1016 -892 1075 l-96 95 -480 -240 c-264 -132 -480 -243
-480 -248 0 -4 527 -629 1170 -1387 644 -759 1170 -1383 1170 -1386 0 -4 -75
-4 -167 0 -93 3 -258 8 -368 11 -110 3 -256 7 -325 10 -69 3 -222 7 -340 10
-118 3 -262 7 -320 10 -58 3 -213 7 -345 10 -132 3 -283 8 -335 10 -52 2 -214
7 -360 11 -146 3 -294 7 -330 9 -36 2 -130 5 -210 6 -119 2 -145 0 -143 -12 2
-14 123 -596 162 -778 11 -52 25 -97 31 -101 6 -4 133 -12 283 -19 150 -6 292
-14 317 -16 25 -2 108 -7 185 -10 77 -3 172 -8 210 -10 39 -3 162 -9 275 -15
269 -13 396 -19 500 -25 105 -6 615 -32 805 -41 77 -3 141 -7 142 -8 1 -1
-187 -288 -418 -637 -231 -349 -583 -879 -781 -1179 -199 -300 -364 -549 -368
-553 -17 -20 -533 352 -925 667 -745 597 -1466 1306 -2111 2077 -935 1117
-1772 2421 -2465 3836 l-157 322 400 420 c220 232 403 421 407 421 4 0 24 -30
46 -67 102 -177 397 -672 468 -788 701 -1139 1148 -1796 1566 -2300 115 -138
330 -369 337 -362 2 2 -8 64 -22 138 -14 73 -45 240 -69 369 -24 129 -60 321
-79 425 -74 393 -86 459 -151 805 -36 195 -79 425 -95 510 -16 85 -133 711
-260 1390 -127 679 -239 1279 -250 1333 l-20 99 73 78 c39 43 337 357 662 699
l590 620 335 -336 c184 -185 443 -440 575 -567z m6660 -4931 c262 -140 914
-465 1175 -584 891 -409 1716 -710 2467 -900 209 -53 583 -131 629 -131 17 0
24 -4 21 -12 -16 -38 -113 -273 -1077 -2603 -709 -1714 -840 -2032 -1034
-2499 -63 -154 -119 -283 -123 -287 -28 -27 -817 -45 -1182 -26 -1245 62
-2537 336 -3736 792 -314 120 -940 388 -969 415 -5 5 0 23 11 42 11 18 109
184 218 368 108 184 219 371 245 415 63 106 849 1440 958 1625 146 250 142
244 162 223 13 -13 2134 -2516 2145 -2531 1 -1 52 22 114 53 61 30 113 55 115
55 2 0 100 46 217 103 118 57 251 121 297 142 45 21 82 41 82 45 0 3 -385 480
-856 1060 -1235 1521 -1299 1600 -1303 1611 -2 7 16 8 50 5 30 -3 115 -8 189
-11 74 -3 169 -8 210 -10 41 -3 212 -12 380 -20 168 -8 343 -17 390 -20 125
-7 403 -21 595 -30 103 -5 144 -7 380 -20 50 -3 140 -7 200 -10 61 -3 151 -7
200 -10 78 -5 435 -23 780 -40 61 -3 184 -10 275 -15 90 -5 166 -7 168 -5 3 2
-71 397 -123 660 -7 39 -28 144 -45 235 l-32 166 -176 22 c-120 14 -261 23
-437 27 -143 3 -294 7 -335 10 -41 2 -183 7 -315 10 -132 3 -298 8 -370 10
-71 3 -285 10 -475 15 -662 19 -716 20 -850 25 -74 3 -234 7 -355 11 -121 3
-222 8 -223 9 -2 2 96 174 219 382 122 208 264 448 314 533 50 85 185 314 299
508 l209 352 61 -34 c33 -19 142 -78 241 -131z"/>
</g>
</svg>
